# xmcd
#
# Track frame offsets:
#	150
#	16126
#	32102
#	47177
#	63226
#	81601
#	95926
#	111304
#	128178
#	143628
#
# Disc length: 2060 seconds
#
# Revision: 0
# Processed by: cddbd v1.4PL0 Copyright (c) Steve Scherf et al.
# Submitted via: dBpowerAMP V4.0
#
DISCID=8e080a0a
DTITLE=Bluegrass Musicians - Pickin' On Rascal Flatts
DYEAR=1900
DGENRE=Country
TTITLE0=Prayin' For Daylight
TTITLE1=These Days
TTITLE2=While You Loved Me
TTITLE3=I'm Movin' On
TTITLE4=Mayberry
TTITLE5=This Everyday Love
TTITLE6=I Melt
TTITLE7=Long Slow Beautiful Dance
TTITLE8=Too Good Is True
TTITLE9=Down From Ohio (Original Composition)
EXTD=
EXTT0=
EXTT1=
EXTT2=
EXTT3=
EXTT4=
EXTT5=
EXTT6=
EXTT7=
EXTT8=
EXTT9=
PLAYORDER=
